<svg width="14" height="16" viewBox="0 0 14 16" fill="none" xmlns="http://www.w3.org/2000/svg">
<path d="M1.32985 0.734901L4.51997 0.846008C4.86655 0.85827 5.17338 1.08285 5.24788 1.37626L6.01729 4.47239C6.08461 4.7433 5.93673 5.00882 5.65481 5.11832L3.59253 5.93468C4.21128 8.07618 5.69339 10.0808 7.78237 11.5195L9.58455 10.3564C9.83158 10.1972 10.1822 10.2052 10.4459 10.3755L13.4597 12.322C13.7469 12.5108 13.8539 12.8378 13.713 13.0997L12.4145 15.51C12.2794 15.7602 11.953 15.8881 11.6213 15.8115C4.10318 14.0758 -0.814831 7.53338 0.650176 1.18774C0.714145 0.910661 0.99559 0.722875 1.32985 0.734901Z" fill="#BD6678"/>
</svg>
