<svg width="204" height="145" viewBox="0 0 204 145" fill="none" xmlns="http://www.w3.org/2000/svg">
<path d="M87.8789 100.699C87.8789 100.699 93.5408 117.319 99.0982 124.236C100.733 126.263 99.0982 127.126 98.0129 128.224C77.8757 148.911 42.021 150.323 20.55 131.049C2.34813 114.717 -4.2945 94.2917 2.76659 70.8986C9.71 47.7278 26.3036 34.2202 50.1674 30.3627C82.4523 25.1323 114.593 52.3306 115.025 84.9685C115.286 105.119 123.851 115.475 143.701 119.346C144.93 119.594 146.826 120.039 146.826 120.039C146.826 120.039 146.826 122.039 146.826 123.451C146.826 128.682 146.826 133.912 146.826 139.143C146.826 141.758 146.826 144.478 146.826 144.478C145.061 144.633 143.288 144.681 141.517 144.622C117.222 142.935 94.4431 122.392 90.4418 98.3846C89.8714 94.6861 89.6134 90.9462 89.6703 87.2045C89.7394 82.9939 88.9604 78.8125 87.3796 74.9093C85.7989 71.0062 83.4487 67.461 80.4691 64.4851C77.4896 61.5093 73.9416 59.1635 70.0365 57.5875C66.1314 56.0116 61.9489 55.2377 57.7385 55.3119C39.6411 55.3119 25.6628 69.0941 25.6105 87.0215C25.4224 94.0922 27.6126 101.021 31.8303 106.7C36.0481 112.378 42.0493 116.476 48.8729 118.339C55.6189 120.336 62.83 120.097 69.429 117.658C76.028 115.218 81.6608 110.71 85.486 104.805C86.2052 103.576 87.8789 100.699 87.8789 100.699Z" fill="#BD6678"/>
<path d="M114.789 39.6467C122.694 34.778 131.548 31.657 140.759 30.4935C170.062 27.1198 198.071 47.8977 203.118 77.0705C208.741 109.552 186.891 139.404 153.992 144.216C152.549 144.354 151.099 144.398 149.65 144.347C149.65 144.347 149.65 142.621 149.65 140.267V124.001V120.078C150.856 119.643 152.087 119.284 153.338 119.006C160.613 117.575 167.173 113.68 171.913 107.979C176.652 102.277 179.282 95.1155 179.359 87.7014C179.765 73.0169 169.225 59.5224 154.515 55.8742C147.964 54.2576 141.073 54.7225 134.8 57.2044C128.526 59.6862 123.181 64.0615 119.51 69.7217C118.817 70.8071 118.111 71.8793 117.026 73.54C114.62 67.9042 113.207 62.4514 110.357 57.5871C106.089 50.0247 100.215 43.4901 93.1486 38.4437C91.9732 37.7596 91.0154 36.7568 90.386 35.5512C89.7566 34.3457 89.4813 32.9865 89.5919 31.6311C89.7924 22.4865 89.7924 13.3333 89.5919 4.17128C89.5919 2.48446 89.5919 0 89.5919 0C89.5919 0 92.3509 0.379231 93.9724 0.719209C106.395 3.93593 116.032 9.61093 114.894 26.1914C114.541 30.4019 114.789 34.6517 114.789 39.6467Z" fill="#D3AE36"/>
</svg>
